<svg width="63" height="73" version="1.1" viewBox="0 0 16.669 19.315" xmlns="http://www.w3.org/2000/svg">
 <g transform="matrix(.45964 0 0 .45964 55.422 -29.11)">
  <path d="m-102.16 63.907c-5.1343 0.0067-10.01 2.2535-13.351 6.1522 1.0125-0.4783 2.1435-0.74713 3.3376-0.74713h14.259c4e-3 7e-3 8e-3 0.01354 0.0117 0.02067 0.18524-0.01349 0.37089-0.02038 0.55662-0.02067 3.6683 0.0011 6.8438 2.5494 7.6392 6.1304 2.5563-0.69495 4.3305-3.0157 4.3307-5.6648-8.2e-5 -3.2424-2.6287-5.8708-5.8711-5.8707z" fill="#614623" stop-color="#000000" stroke="#000" stroke-linecap="square" stroke-width="1.1513" style="paint-order:fill markers stroke"/>
  <path d="m-113.01 69.312-4.1713 22.361v4.7401c4.4609 5.2651 11.012 8.3017 17.913 8.303v-3.2713h6.7707c2.1617 9e-5 3.9142-1.7524 3.9141-3.9141-1.56e-4 -0.93423-0.33446-1.8376-0.94252-2.5468v-5.2089h2.5994c1.0809 4.7e-5 1.9571-0.87618 1.957-1.957l-4.5564-9.3558v-1.3217c0-4.3231-3.5046-7.8277-7.8277-7.8277-0.18572 2.81e-4 -0.37138 7e-3 -0.5566 0.02059-4e-3 -7e-3 -8e-3 -0.0137-0.0117-0.02059h-14.841z" fill="#eec8ba" stop-color="#000000" stroke="#000" stroke-linecap="square" stroke-width="1.1506" style="paint-order:fill markers stroke"/>
  <g fill="none" stroke="#000" stroke-linejoin="round" stroke-width="1.1506">
   <path d="m-90.035 89.372a5.8709 5.8709 0 0 1 2.6088-0.41319" stop-color="#000000" style="paint-order:fill markers stroke"/>
   <path d="m-91.069 88.358a1.678 1.7028 0 0 1 1.678-1.7028" stop-color="#000000" style="paint-order:fill markers stroke"/>
   <path d="m-90.35 83.767a7.8278 7.8278 0 0 1-2.2927 5.5351" stop-color="#000000" stroke-linecap="square" style="paint-order:fill markers stroke"/>
   <path d="m-89.522 91.894a17.613 17.613 0 0 1-3.0584-0.26758" stop-color="#000000" stroke-linecap="square" style="paint-order:fill markers stroke"/>
  </g>
  <path d="m-112.18 69.312c-4.3231 0-7.8277 3.5046-7.8278 7.8277 0 0.43172 0.0173 0.8584 0.10274 1.2677l2.9206 13.994c3.4318-0.25722 6.6408-2.7071 7.4317-5.9419-1.9178-1.4819-3.041-3.7686-3.0415-6.1923 1.3e-4 -2.1616 1.7525-3.9138 3.9141-3.9137 2.1614 1.33e-4 3.9135 1.7523 3.9137 3.9137v1.1316h2.8305v-3.7967l1.3836 7.29e-4c2.03-0.92948 3.4281-2.9784 3.428-5.3401-2.9e-4 -1.0367-0.2751-2.0549-0.79649-2.9509h-14.012z" fill="#614623" stop-color="#000000" stroke="#000" stroke-linecap="square" stroke-width="1.1506" style="paint-order:fill markers stroke"/>
  <path d="m-90.923 78.956v2.3483h-3.9139z" stop-color="#000000" style="paint-order:fill markers stroke"/>
  <path d="m-107.07 76.791c0.68328 0.43895 1.2481 0.70535 1.6241 1.5428h14.523v5.5022h2.3482v-7.045h-2.3482z" stop-color="#000000" style="paint-order:fill markers stroke"/>
  <g fill="none" stroke="#000" stroke-width="1.1506">
   <g>
    <path d="m-99.84 101.44a7.8278 7.8278 0 0 1-4.63-1.5161" stop-color="#000000" stroke-linejoin="round" style="paint-order:fill markers stroke"/>
    <path d="m-107.05 87.753a7.8278 7.8278 0 0 1-5.5392-7.4858" stop-color="#000000" stroke-linejoin="round" style="paint-order:fill markers stroke"/>
    <path d="m-107.47 88.91v-1.6995" stop-color="#000000" style="paint-order:fill markers stroke"/>
    <path d="m-110.28 80.364a1.678 1.7028 0 0 1 1.678-1.7028 1.678 1.7028 0 0 1 1.678 1.7028" stop-color="#000000" stroke-linejoin="round" style="paint-order:fill markers stroke"/>
    <path d="m-106.34 85.262a3.9437 4.898 0 0 1-2.8051-1.4552 3.9437 4.898 0 0 1-1.1383-3.5009" stop-color="#000000" stroke-linejoin="round" style="paint-order:fill markers stroke"/>
   </g>
   <path d="m-106.93 83.429a1.0068 1.0217 0 0 1-0.8719-0.51084 1.0068 1.0217 0 0 1 0-1.0217 1.0068 1.0217 0 0 1 0.8719-0.51084" stop-color="#000000" stroke-linecap="square" stroke-linejoin="round" style="paint-order:fill markers stroke"/>
   <path d="m-106.93 81.386v-1.1041" stop-color="#000000" style="paint-order:fill markers stroke"/>
   <path transform="rotate(-60)" d="m-127.25-37.549a5.8709 5.8709 0 0 1 1.0122-0.21414" stop-color="#000000" stroke-linecap="square" stroke-linejoin="round" style="paint-order:fill markers stroke"/>
  </g>
  <path d="m-99.84 101.44 0.57594 5e-5" fill="#b3b3b3" stop-color="#000000" stroke="#000" stroke-width="1.1506" style="paint-order:fill markers stroke"/>
  <path d="m-90.797 78.881v2.4239h-4.0398z" stop-color="#000000" style="paint-order:fill markers stroke"/>
 </g>
</svg>
